<?xml version="1.0" encoding="UTF-8" standalone="no"?>
<!-- Created with Inkscape (http://www.inkscape.org/) -->

<svg
   width="32"
   height="32"
   viewBox="0 0 8.4666667 8.4666667"
   version="1.1"
   id="svg5"
   xmlns="http://www.w3.org/2000/svg"
   xmlns:svg="http://www.w3.org/2000/svg">
  <defs
     id="defs2" />
  <g
     id="layer1">
    <path
       style="fill:#000000;fill-rule:nonzero;stroke:#000000;stroke-width:0.0121733"
       d="M 2.7335104,8.4141468 2.4663903,8.3839025 2.9115908,8.2483315 C 3.3717425,8.1082072 4.049607,7.7971008 4.1896068,7.6617829 4.3096024,7.5457995 4.2856348,7.4930485 4.1470218,7.56806 4.0796838,7.6044986 3.920413,7.6623112 3.7930838,7.6965334 3.6657549,7.7307551 3.570777,7.7746565 3.5820244,7.7940924 3.6144214,7.8500796 3.0395861,7.8999272 2.7060097,7.8700589 2.3397812,7.8372671 2.0329187,7.7007307 1.8143741,7.4733326 L 1.6520784,7.3044647 1.5368604,7.4855586 1.4216405,7.6666546 1.3926191,7.5116682 C 1.369304,7.3871437 1.321931,7.3341305 1.1516026,7.2419475 0.25527179,6.7568413 -0.15814563,5.4251955 0.1923234,4.152048 0.81353256,1.8953839 2.7315775,0.04192538 4.4475327,0.0401265 6.1035439,0.038451 8.0115283,1.7007908 8.3472409,3.4378889 8.4751317,4.0996372 8.4194913,5.0076277 8.2233524,5.4596442 7.8666023,6.281803 6.3446019,7.7209488 5.5156664,8.0199306 5.1774927,8.1419022 5.1831138,8.1325252 5.5827928,7.9079788 6.1549405,7.5865331 6.0417614,7.579056 5.4424976,7.89871 4.6984078,8.2956166 3.5748448,8.5093959 2.7335104,8.4141468 Z M 3.8324702,8.2401701 C 4.5119217,8.0891056 6.0249097,7.4401588 6.3950553,7.1410366 6.7786797,6.8310198 7.3453571,5.9018137 7.5622591,5.2271165 8.2657864,3.0387172 6.5305155,1.0392798 4.061389,1.1932972 2.2838686,1.3041749 0.43788987,3.1674569 0.2806639,5.0094603 0.20968716,5.8409849 0.56783399,6.6807797 1.097074,6.9238146 1.4901317,7.104312 1.5014932,7.1028592 1.8463817,6.8280072 2.4992932,6.3076809 2.9937727,6.1461007 3.2138537,6.3811552 3.3745565,6.5527899 3.4314502,6.5402476 3.7087342,6.2720551 3.8416072,6.1435379 4.2174582,5.8232495 4.5439568,5.5602998 4.870457,5.2973516 5.2678144,4.9639417 5.4269736,4.8193874 6.0451434,4.2579465 6.4150386,4.0930228 6.7730499,4.2192167 c 0.3129935,0.1103241 0.5172495,0.4910421 0.3721262,0.6936137 -0.044878,0.062643 -0.068612,0.072827 -0.069544,0.02984 -0.00104,-0.05239 -0.014495,-0.053674 -0.067707,-0.0065 -0.036457,0.032315 -0.053397,0.081037 -0.037639,0.1082679 0.01576,0.027229 0.010539,0.03775 -0.011627,0.023377 -0.022148,-0.014385 -0.0661,0.00373 -0.097675,0.040201 -0.048196,0.055693 -0.033915,0.066936 0.08904,0.070088 l 0.1464471,0.00375 -0.1294085,0.050243 C 6.8074496,5.2940644 6.4895502,5.2239504 6.1819025,5.0589103 5.854375,4.8832095 5.7145909,4.9421514 5.0814542,5.5229356 4.7940123,5.7866097 4.3647863,6.2110929 4.1276171,6.4662322 3.7201446,6.904581 3.6872507,6.9293512 3.5301709,6.9161387 3.3764517,6.9032062 3.0704835,6.6235836 3.0680736,6.4938273 3.0670302,6.4418256 2.8256373,6.4502268 2.68548,6.5071311 2.3967953,6.6243586 2.0434497,7.0513081 2.0434497,7.2829033 c 0,0.3205383 1.2504423,0.3960229 2.0174995,0.1217912 C 4.3405965,7.3047264 5.1398526,6.8930331 5.4545026,6.6868895 5.6539875,6.5561959 5.9155865,6.4296478 5.8499142,6.4956098 5.7909342,6.5548494 5.0417719,7.0867294 4.8653778,7.1945979 4.7891166,7.2412323 4.6954993,7.3353318 4.6573374,7.4037046 4.5282276,7.6350323 4.2804507,7.8451257 3.8623372,8.0777989 3.6332587,8.2052762 3.4595471,8.31025 3.4763102,8.3110759 c 0.016767,7.658e-4 0.177037,-0.031082 0.35616,-0.070909 z M 2.9345239,5.5979161 C 2.5214797,5.4414101 2.2660501,5.129585 2.2660501,4.7818543 c 0,-1.2015043 0.829158,-2.7704903 1.7148768,-3.244999 0.9563417,-0.5123436 2.1388297,0.3114961 2.1270669,1.4819267 -0.00356,0.3538936 -0.2559026,1.0619424 -0.3784731,1.0619424 -0.027646,0 -0.037818,0.013287 -0.022599,0.029551 0.015213,0.016241 -0.055167,0.1598283 -0.1564101,0.319059 C 5.4492672,4.5885643 5.3579637,4.6917116 5.3476138,4.6585529 5.3372658,4.6253934 5.358439,4.5620519 5.3946706,4.5178004 5.483121,4.4097628 5.6056745,3.9707775 5.6711681,3.5273797 5.771721,2.8466192 5.0966508,2.2167993 4.421618,2.3615879 3.6605983,2.5248219 2.5226365,3.7954232 2.453979,4.5585706 2.419883,4.937532 2.6000456,5.3239962 2.8835033,5.4799532 c 0.1474187,0.081107 0.7724518,0.1906788 0.894018,0.1567256 0.050139,-0.013996 0.1023803,-0.00605 0.116094,0.017634 0.048918,0.084532 -0.7039981,0.04027 -0.9590913,-0.056388 z M 3.3702896,5.2518702 C 2.4424002,4.9788098 2.4152484,4.238441 3.2968269,3.2487432 L 3.5931965,2.9160258 3.5707385,3.1298707 C 3.5201675,3.6113956 3.7344924,4.2696828 3.802293,3.8410758 3.8487081,3.5476575 3.9262481,3.3742087 4.158578,3.0441161 4.3122562,2.8257672 4.3573669,2.7253789 4.3352489,2.6509476 4.2491769,2.3613057 4.8434542,3.0073066 5.0059051,3.3799746 5.4428907,4.3824299 4.4146525,5.5592066 3.3702896,5.2518702 Z m 3.700135,-0.4292587 c 0.056555,-0.072781 0.028238,-0.2663976 -0.038966,-0.2663976 -0.038719,0 -0.076092,0.081144 -0.1368208,0.2970592 -0.04004,0.1423699 0.054089,0.1259527 0.1757868,-0.030662 z M 6.7776912,4.6631637 C 6.9311374,4.4191288 6.9215807,4.3184693 6.7449682,4.3184693 c -0.028351,0 -0.1604722,0.463838 -0.1604722,0.5633688 0,0.087746 0.00183,0.085686 0.1931952,-0.2186744 z m -0.6314294,0.01192 c 0.017877,-0.2400418 0.00793,-0.2628259 -0.046644,-0.1069844 -0.095096,0.2714951 -0.1004263,0.3209554 -0.034585,0.3209554 0.045348,0 0.070164,-0.065368 0.081229,-0.213971 z M 6.4945279,4.3904066 C 6.5834049,4.3317401 6.5379939,4.2877023 6.4094069,4.3078596 6.2616347,4.3310213 6.2469575,4.3579805 6.2062815,4.6808979 L 6.1770675,4.9128329 6.3130738,4.6666193 C 6.387878,4.5312018 6.4695313,4.4069063 6.4945279,4.3904066 Z"
       id="path1528" />
  </g>
</svg>
